# xmcd
#
# Track frame offsets:
# 150
# 17029
# 36526
# 59359
# 69556
# 88340
# 102439
#
# Disc length: 1387 seconds
#
# Revision: 0
# Processed by: cddbd v1.4PL0 Copyright (c) Steve Scherf et al.
# Submitted via: Audion 3.0.2 (http://www.panic.com/audion/)
#
DISCID=62056907
DTITLE=mis - mis
DYEAR=1900
DGENRE=
TTITLE0=khjkh
TTITLE1=ijkj;l
TTITLE2=klkj;j
TTITLE3=kjkh;
TTITLE4=ghjlkhjk
TTITLE5=jklhljk
TTITLE6=jjl
EXTD=
EXTT0=
EXTT1=
EXTT2=
EXTT3=
EXTT4=
EXTT5=
EXTT6=
PLAYORDER=
